<svg id="eKnvlRGjgLE1" xmlns="http://www.w3.org/2000/svg" xmlns:xlink="http://www.w3.org/1999/xlink" viewBox="0 0 24 24" shape-rendering="geometricPrecision" text-rendering="geometricPrecision" project-id="31433ba1afdf4c49bc7c674bbe22c346" export-id="0f2d209cdada4b2b90f2051bf2a583b2" cached="false" style="background-color:transparent"><defs><linearGradient id="eKnvlRGjgLE3-fill" x1="0.055121" y1="0.04648" x2="0.952571" y2="0.951709" spreadMethod="pad" gradientUnits="objectBoundingBox" gradientTransform="translate(0 0)"><stop id="eKnvlRGjgLE3-fill-0" offset="0%" stop-color="#8f31e3"/><stop id="eKnvlRGjgLE3-fill-1" offset="100%" stop-color="#6e23ad"/></linearGradient></defs><g transform="matrix(1.357599 0 0 1.357599-3.226102-4.291315)"><rect width="51.991536" height="41.879379" rx="15" ry="15" transform="matrix(.340022 0 0 0.422128 2.376333 3.160769)" fill="url(#eKnvlRGjgLE3-fill)" stroke-linejoin="round"/><g transform="matrix(0 0.493881-.493882 0 17.142058 6.073418)"><path d="M17.596,12.768c.781207.781207,2.047793.781207,2.829,0s.781207-2.047793,0-2.829L18.657,8.172c.781207.780931,2.047569.780707,2.8285-.0005s.780707-2.047569-.0005-2.8285L18.657,2.515c-.780931-.781207-2.047293-.781431-2.8285-.0005s-.781431,2.047293-.0005,2.8285L14.061,3.575c-.505352-.505352-1.241919-.702715-1.932243-.517743s-1.229528.724176-1.4145,1.4145.012391,1.426891.517743,1.932243l6.364,6.364Z" transform="translate(1.35394-1.353903)" fill="none" stroke="#fff" stroke-width="1.25" stroke-linecap="round" stroke-linejoin="round"/><path d="M2.5,21.5l1.4-1.4" transform="translate(-1.353909 1.353916)" fill="none" stroke="#fff" stroke-width="1.25" stroke-linecap="round" stroke-linejoin="round"/><path d="M20.1,3.9l1.4-1.4" transform="translate(1.35394-1.353903)" fill="none" stroke="#fff" stroke-width="1.25" stroke-linecap="round" stroke-linejoin="round"/><path d="M5.343,21.485c.780931.781207,2.047293.781431,2.8285.0005s.781431-2.047293.0005-2.8285l1.767,1.768c.781207.781207,2.047793.781207,2.829,0s.781207-2.047793,0-2.829L6.404,11.232c-.781207-.781207-2.047793-.781207-2.829,0s-.781207,2.047793,0,2.829l1.768,1.767c-.781207-.780931-2.047569-.780707-2.8285.0005s-.780707,2.047569.0005,2.8285l2.828,2.828Z" transform="translate(-1.353909 1.353916)" fill="none" stroke="#fff" stroke-width="1.25" stroke-linecap="round" stroke-linejoin="round"/><path d="M8.585096,15.414905l6.829845-6.829809" fill="none" stroke="#fff" stroke-width="1.25" stroke-linecap="round" stroke-linejoin="round"/></g></g></svg>
